<svg width="77" height="56" viewBox="0 0 77 56" fill="none" xmlns="http://www.w3.org/2000/svg">
<path d="M72.987 30.2363C71.8137 30.2363 70.8587 29.2446 70.8587 28.0231C70.8587 26.7977 71.8137 25.793 72.987 25.793C74.172 25.793 75.1231 26.7977 75.1231 28.0231C75.1231 29.2456 74.172 30.2363 72.987 30.2363ZM69.0274 51.7912H7.80277V4.25308H69.0274V51.7912ZM4.00523 28.8401C3.57142 28.8401 3.22301 28.4698 3.22301 28.0242C3.22301 27.5645 3.57142 27.2001 4.00523 27.2001C4.44583 27.2001 4.79521 27.5645 4.79521 28.0242C4.79521 28.4698 4.44583 28.8401 4.00523 28.8401ZM72.462 0.813477H4.53221C2.03804 0.813477 0 2.94027 0 5.54079V50.4955C0 53.098 2.03901 55.2268 4.53221 55.2268H72.462C74.962 55.2268 77 53.098 77 50.4955V5.54079C77 2.94027 74.961 0.813477 72.462 0.813477Z" fill="white"/>
</svg>
