<svg width="29" height="56" viewBox="0 0 29 56" fill="none" xmlns="http://www.w3.org/2000/svg">
<path d="M24.94 0.813477H4.06C2.98322 0.813477 1.95054 1.25936 1.18915 2.05304C0.427749 2.84673 0 3.92319 0 5.04562V50.9947C0 52.1171 0.427749 53.1936 1.18915 53.9872C1.95054 54.7809 2.98322 55.2268 4.06 55.2268H24.94C26.0168 55.2268 27.0495 54.7809 27.8109 53.9872C28.5722 53.1936 29 52.1171 29 50.9947V5.04562C29 3.92319 28.5722 2.84673 27.8109 2.05304C27.0495 1.25936 26.0168 0.813477 24.94 0.813477ZM10.5734 4.91866H18.4208C18.4977 4.91866 18.5715 4.95051 18.6259 5.0072C18.6802 5.06389 18.7108 5.14078 18.7108 5.22096C18.7108 5.30113 18.6802 5.37802 18.6259 5.43471C18.5715 5.4914 18.4977 5.52325 18.4208 5.52325H10.5734C10.497 5.5217 10.424 5.48936 10.37 5.433C10.3159 5.37664 10.2849 5.30065 10.2834 5.22096C10.2834 5.14078 10.314 5.06389 10.3683 5.0072C10.4227 4.95051 10.4965 4.91866 10.5734 4.91866ZM18.7978 50.8677C18.7978 51.2638 18.6469 51.6436 18.3782 51.9236C18.1095 52.2037 17.7451 52.361 17.3652 52.361H11.6348C11.2549 52.361 10.8905 52.2037 10.6218 51.9236C10.3531 51.6436 10.2022 51.2638 10.2022 50.8677C10.2014 50.6714 10.238 50.4768 10.3097 50.2953C10.3814 50.1137 10.4869 49.9488 10.6201 49.81C10.7533 49.6711 10.9115 49.5612 11.0857 49.4864C11.2598 49.4116 11.4465 49.3736 11.6348 49.3744H17.3652C17.5535 49.3736 17.7402 49.4116 17.9143 49.4864C18.0885 49.5612 18.2467 49.6711 18.3799 49.81C18.5131 49.9488 18.6186 50.1137 18.6903 50.2953C18.762 50.4768 18.7986 50.6714 18.7978 50.8677ZM26.1 47.3671H2.9V8.28624H26.1V47.3671Z" fill="white"/>
</svg>
