<svg width="77" height="56" viewBox="0 0 77 56" fill="none" xmlns="http://www.w3.org/2000/svg">
<path d="M10.4133 0.813477H66.5867C67.9067 0.813477 69.2267 1.41307 70.1067 2.31247C70.9867 3.21186 71.5733 4.56095 71.5733 5.91004V41.7359C71.5733 43.085 70.9867 44.4341 70.1067 45.3335C69.2267 46.2329 67.9067 46.8325 66.5867 46.8325H10.4133C9.09333 46.8325 7.77333 46.2329 6.89333 45.3335C6.01333 44.4341 5.42667 43.085 5.42667 41.7359V5.91004C5.42667 4.56095 6.01333 3.21186 6.89333 2.31247C7.77333 1.41307 9.09333 0.813477 10.4133 0.813477ZM2.05333 55.2268C0.88 55.2268 0 54.3274 0 53.1282C0 51.929 0.88 51.0296 2.05333 51.0296H74.9467C76.12 51.0296 77 51.929 77 53.1282C77 54.3274 76.12 55.2268 74.9467 55.2268H2.05333ZM66.5867 5.01065H10.4133C10.2667 5.01065 9.97333 5.16055 9.82667 5.31045C9.68 5.46034 9.53333 5.76014 9.53333 5.91004V41.7359C9.53333 42.0357 9.68 42.1856 9.82667 42.3355C9.97333 42.4854 10.2667 42.6353 10.4133 42.6353H66.5867C66.7333 42.6353 67.0267 42.4854 67.1733 42.3355C67.32 42.1856 67.4667 42.0357 67.4667 41.7359V5.91004C67.4667 5.76014 67.32 5.46034 67.1733 5.31045C67.0267 5.16055 66.7333 5.01065 66.5867 5.01065Z" fill="white"/>
</svg>
